<?xml version="1.0" encoding="UTF-8" standalone="no"?>
<!-- Generator: Adobe Illustrator 22.0.1, SVG Export Plug-In . SVG Version: 6.00 Build 0)  -->

<svg
   xmlns:dc="http://purl.org/dc/elements/1.1/"
   xmlns:cc="http://creativecommons.org/ns#"
   xmlns:rdf="http://www.w3.org/1999/02/22-rdf-syntax-ns#"
   xmlns:svg="http://www.w3.org/2000/svg"
   xmlns="http://www.w3.org/2000/svg"
   xmlns:sodipodi="http://sodipodi.sourceforge.net/DTD/sodipodi-0.dtd"
   xmlns:inkscape="http://www.inkscape.org/namespaces/inkscape"
   version="1.1"
   id="Ebene_1"
   x="0px"
   y="0px"
   viewBox="0 0 90.7 90.7"
   style="enable-background:new 0 0 90.7 90.7;"
   xml:space="preserve"
   sodipodi:docname="iseqb.svg"
   inkscape:version="0.92.4 (5da689c313, 2019-01-14)"><metadata
   id="metadata4606"><rdf:RDF><cc:Work
       rdf:about=""><dc:format>image/svg+xml</dc:format><dc:type
         rdf:resource="http://purl.org/dc/dcmitype/StillImage" /></cc:Work></rdf:RDF></metadata><defs
   id="defs4604">
	
	

		
		
	</defs><sodipodi:namedview
   pagecolor="#ffffff"
   bordercolor="#666666"
   borderopacity="1"
   objecttolerance="10"
   gridtolerance="10"
   guidetolerance="10"
   inkscape:pageopacity="0"
   inkscape:pageshadow="2"
   inkscape:window-width="1280"
   inkscape:window-height="755"
   id="namedview4602"
   showgrid="false"
   inkscape:zoom="5.6568542"
   inkscape:cx="37.748829"
   inkscape:cy="63.998344"
   inkscape:window-x="0"
   inkscape:window-y="1"
   inkscape:window-maximized="1"
   inkscape:current-layer="Ebene_1" />
<style
   type="text/css"
   id="style4587">
	.st0{fill:#1D1D1B;}
	.st1{fill:#36BDA1;}
</style>
<text
   xml:space="preserve"
   style="font-style:normal;font-weight:normal;font-size:21.15893745px;line-height:125%;font-family:sans-serif;letter-spacing:0px;word-spacing:0px;fill:#000000;fill-opacity:1;stroke:none;stroke-width:0.52897346px;stroke-linecap:butt;stroke-linejoin:miter;stroke-opacity:1"
   x="7.4415293"
   y="32.925007"
   id="text4610"><tspan
     sodipodi:role="line"
     id="tspan4608"
     x="7.4415293"
     y="32.925007"
     style="font-style:normal;font-variant:normal;font-weight:normal;font-stretch:normal;font-family:Courier;-inkscape-font-specification:Courier;stroke-width:0.52897346000000001px">iSE B</tspan></text>
<g
   id="g4638"
   transform="matrix(0.90115133,-0.02221541,0.02213727,0.90433224,4.4080585,3.4382943)"><path
     style="fill:#1d1d1b;stroke-width:0.23521309"
     inkscape:connector-curvature="0"
     id="path4589"
     d="m 51.267727,33.640473 -0.09217,-1.201809 0.471317,-0.03707 0.07314,0.989667 2.210506,0.04684 0.114993,-0.98568 c 0.002,-0.09406 0.07453,-0.186633 0.169097,-0.208156 0.472812,-0.107614 0.923603,-0.286275 1.352373,-0.535982 0.09506,-0.04504 0.189125,-0.04304 0.258178,0.029 l 0.763073,0.62786 1.584448,-1.495654 -0.594973,-0.788985 c -0.06905,-0.07204 -0.06656,-0.189623 -0.01803,-0.259174 0.24413,-0.418306 0.441726,-0.861124 0.592788,-1.328455 0.02551,-0.09356 0.09755,-0.162619 0.215132,-0.160127 l 0.989667,-0.07314 0.04684,-2.210506 -0.98568,-0.114993 c -0.09406,-0.002 -0.186633,-0.07454 -0.208156,-0.169097 -0.107614,-0.472812 -0.286275,-0.923603 -0.535982,-1.352373 -0.04504,-0.09506 -0.04304,-0.189125 0.029,-0.258178 l 0.62786,-0.763073 -1.518671,-1.608462 -0.788985,0.594973 c -0.07204,0.06905 -0.189623,0.06656 -0.259175,0.01804 -0.418305,-0.24413 -0.861123,-0.441726 -1.328454,-0.592788 -0.09357,-0.02551 -0.162619,-0.09755 -0.160128,-0.215132 l -0.07314,-0.989667 -2.210507,-0.04684 -0.114993,0.98568 c -0.002,0.09406 -0.07453,0.186633 -0.169097,0.208156 -0.472812,0.107614 -0.923603,0.286275 -1.352372,0.535982 -0.09506,0.04504 -0.189125,0.04304 -0.258179,-0.029 l -0.786589,-0.628359 -1.584945,1.51917 0.594972,0.788985 c 0.06905,0.07204 0.06656,0.189623 0.01803,0.259175 -0.24413,0.418305 -0.441726,0.861123 -0.592788,1.328454 -0.02551,0.09357 -0.09755,0.162619 -0.215132,0.160128 l -0.989667,0.07313 -0.04684,2.210507 0.98568,0.114993 c 0.09406,0.002 0.186634,0.07453 0.208156,0.169096 0.107614,0.472813 0.286275,0.923603 0.535982,1.352373 l -0.404756,0.226689 c -0.226689,-0.404755 -0.405349,-0.855546 -0.536978,-1.30534 L 46.250358,28.381825 C 46.133277,28.355815 46.041206,28.25976 46.043697,28.14218 l 0.05481,-2.586763 c 0.0025,-0.11758 0.09855,-0.209651 0.216628,-0.230676 l 1.037196,-0.09565 c 0.126052,-0.397281 0.298637,-0.77005 0.494738,-1.14232 l -0.641502,-0.813493 c -0.06855,-0.09556 -0.06556,-0.236655 0.02999,-0.30521 l 1.897132,-1.818401 c 0.09606,-0.09207 0.213638,-0.08958 0.306207,-0.01704 l 0.785592,0.675391 c 0.380742,-0.203671 0.759988,-0.336795 1.162252,-0.445904 l 0.139505,-1.032213 c 0.02601,-0.117082 0.122065,-0.209153 0.239645,-0.206662 l 2.633795,0.05581 c 0.117581,0.0025 0.209651,0.09855 0.230676,0.216627 l 0.09566,1.037197 c 0.397281,0.126051 0.770049,0.298636 1.142319,0.494737 l 0.813497,-0.641504 c 0.09556,-0.06855 0.236655,-0.06556 0.30521,0.02999 l 1.8184,1.897132 c 0.09207,0.09606 0.08958,0.213637 0.01704,0.306206 l -0.675391,0.785593 c 0.203672,0.380741 0.336795,0.759987 0.445904,1.162251 l 1.032214,0.139506 c 0.117082,0.02601 0.209153,0.122065 0.206661,0.239645 l -0.05581,2.633795 c -0.0025,0.11758 -0.09855,0.209651 -0.216628,0.230676 l -1.037197,0.09565 c -0.126051,0.397281 -0.298636,0.770049 -0.494737,1.142319 l 0.641507,0.813497 c 0.06856,0.09556 0.06556,0.236656 -0.02999,0.30521 l -1.897132,1.818401 c -0.09606,0.09207 -0.213638,0.08958 -0.306207,0.01704 l -0.785593,-0.675391 c -0.380741,0.203672 -0.759987,0.336795 -1.162251,0.445904 l -0.139505,1.032214 c -0.02601,0.117082 -0.122065,0.209152 -0.239645,0.206661 l -2.61028,-0.05531 c -0.11758,-0.0025 -0.233167,-0.09905 -0.230675,-0.216628 z"
     class="st0" /><path
     style="fill:#1d1d1b;stroke-width:0.23521309"
     inkscape:connector-curvature="0"
     id="path4591"
     d="m 56.723369,27.098053 c 0.04385,-2.069411 -1.613426,-3.798442 -3.682837,-3.842293 -2.06941,-0.04385 -3.798442,1.613426 -3.842293,3.682837 -0.01146,0.540868 0.09516,1.060713 0.296835,1.535518 l -0.427275,0.179159 c -0.223699,-0.545852 -0.352338,-1.136743 -0.33988,-1.724643 0.04933,-2.328087 1.994492,-4.192523 4.322579,-4.143191 2.328087,0.04933 4.192523,1.994492 4.143191,4.322579 -0.04933,2.328087 -1.994492,4.192523 -4.322579,4.143191 l 0.01,-0.47032 c 2.06941,0.04385 3.798442,-1.613426 3.842293,-3.682837 z"
     class="st0" /></g><g
   id="g4597"
   transform="matrix(0.23053925,-0.00490234,0.00488509,0.23135302,37.473355,21.291062)">
		<path
   style="fill:#36bda1"
   inkscape:connector-curvature="0"
   id="path4595"
   d="m 44.6,56.6 c -0.3,0 -0.5,-0.1 -0.7,-0.3 L 31.6,44 c -0.2,-0.2 -0.3,-0.4 -0.3,-0.7 0,-0.3 0.1,-0.5 0.3,-0.7 l 6.2,-6.2 c 0.4,-0.4 1,-0.4 1.4,0 L 44.6,41.8 67.5,19 c 0.4,-0.4 1,-0.4 1.4,0 l 6.2,6.2 c 0.2,0.2 0.3,0.4 0.3,0.7 0,0.3 -0.1,0.5 -0.3,0.7 L 45.3,56.3 c -0.2,0.2 -0.4,0.3 -0.7,0.3 z M 33.7,43.3 44.6,54.2 72.9,25.9 68.2,21.2 45.3,44 c -0.4,0.4 -1,0.4 -1.4,0 l -5.4,-5.4 z"
   class="st1" />
	</g>
</svg>
